<svg fill="none" height="100%" width="100%" viewBox="0 0 800 800" xmlns:xlink="http://www.w3.org/1999/xlink" xmlns="http://www.w3.org/2000/svg"><defs><clipPath id="i0"><rect height="800" width="800" y="0" x="0" /></clipPath><g id="i1"><g transform="matrix(1,0,0,1,300.619,487.405)" id="i2"><g id="i3" transform="matrix(1,0,0,1,99.381,83.187)"><path fill="#ecf0f1" d="M82.393,82.052C92.963,65.899,99.132,46.625,99.132,26.219C99.132,-28.53,54.75,-82.937,0.001,-82.937C-54.748,-82.937,-99.132,-28.53,-99.132,26.219C-99.132,46.625,-92.962,65.899,-82.392,82.052C-57.139,82.621,-29.282,82.937,0.001,82.937C29.283,82.937,57.14,82.621,82.393,82.052Z" /></g></g><g transform="matrix(1,0,0,1,300.619,487.405)" id="i2"><g id="i4"><g transform="translate(148.119,18.929)"><animateTransform repeatCount="indefinite" type="translate" attributeName="transform" dur="6.54s" begin="0s" calcMode="spline" values="148.119 18.929; 148.119 18.929; 165.619 28.929; 165.619 28.929; 148.119 18.929; 148.119 18.929; 136.119 38.929; 136.119 38.929; 148.119 18.929; 148.119 18.929; 148.119 54.929; 148.119 54.929" keyTimes="0; 0.178571; 0.255102; 0.331632; 0.408163; 0.484694; 0.561225; 0.637755; 0.714286; 0.790816; 0.867347; 1" keySplines="0 0 1 1; 0.333 0 0.667 1; 0 0 1 1; 0.333 0 0.667 1; 0 0 1 1; 0.333 0 0.667 1; 0 0 1 1; 0.333 0 0.667 1; 0 0 1 1; 0.333 0 0.667 1; 0 0 1 1" fill="freeze" /><g transform="scale(1,1) translate(-60.126,-397.902)"><g id="i5" transform="matrix(1,0,0,1,83.231,207.033)"><path fill="#ecf0f1" d="M-42.883,187.684C-42.883,187.684,-82.981,-198.158,-11.696,-184.317C-11.696,-184.317,82.981,-206.782,-19.492,206.783C-19.492,206.783,-42.883,187.684,-42.883,187.684Z" /></g><g id="i3" transform="matrix(1,0,0,1,76.104,213.174)"><path fill="#f6cac9" d="M-23.799,147.734C-25.233,146.255,-26.105,144.325,-26.265,142.271C-28.718,110.632,-47.431,-146.306,-7.309,-136.462C-7.309,-136.462,47.432,-152.876,-8.765,143.233C-10.1,150.268,-18.816,152.876,-23.799,147.734Z" /></g></g></g></g></g><g transform="matrix(1,0,0,1,300.619,487.405)" id="i2"><g id="i6"><g transform="translate(56.472,10.338)"><animateTransform repeatCount="indefinite" type="translate" attributeName="transform" dur="6.54s" begin="0s" calcMode="spline" values="56.472 10.338; 56.472 10.338; 62.472 34.338; 62.472 34.338; 56.472 10.338; 56.472 10.338; 47.472 20.338; 47.472 20.338; 56.472 10.338; 56.472 10.338; 56.472 44.338; 56.472 44.338" keyTimes="0; 0.178571; 0.255102; 0.331632; 0.408163; 0.484694; 0.561225; 0.637755; 0.714286; 0.790816; 0.867347; 1" keySplines="0 0 1 1; 0.333 0 0.667 1; 0 0 1 1; 0.333 0 0.667 1; 0 0 1 1; 0.333 0 0.667 1; 0 0 1 1; 0.333 0 0.667 1; 0 0 1 1; 0.333 0 0.667 1; 0 0 1 1" fill="freeze" /><g transform="rotate(0)"><animateTransform repeatCount="indefinite" type="rotate" attributeName="transform" dur="6.54s" begin="0s" calcMode="spline" values="0; 0; -7; 0; -7; 0; 0" keyTimes="0; 0.714286; 0.734694; 0.752551; 0.772959; 0.790816; 1" keySplines="0 0 1 1; 0.333 0 0.667 1; 0.333 0 0.667 1; 0.333 0 0.667 1; 0.333 0 0.667 1; 0 0 1 1" fill="freeze" /><g transform="scale(1,1) translate(-112.164,-389.311)"><g id="i5" transform="matrix(1,0,0,1,83.231,207.033)"><path fill="#ecf0f1" d="M42.883,187.684C42.883,187.684,82.981,-198.158,11.696,-184.317C11.696,-184.317,-82.981,-206.782,19.492,206.783C19.492,206.783,42.883,187.684,42.883,187.684Z" /></g><g id="i3" transform="matrix(1,0,0,1,90.358,213.174)"><path fill="#f6cac9" d="M23.8,147.734C25.234,146.255,26.105,144.325,26.265,142.271C28.718,110.632,47.431,-146.306,7.309,-136.462C7.309,-136.462,-47.432,-152.876,8.765,143.233C10.1,150.268,18.817,152.876,23.8,147.734Z" /></g></g></g></g></g></g><g transform="matrix(1,0,0,1,300.619,487.405)" id="i2"><g id="i7"><g transform="translate(130.678,76.108)"><animateTransform repeatCount="indefinite" type="translate" attributeName="transform" dur="6.54s" begin="0s" calcMode="spline" values="130.678 76.108; 130.678 76.108; 159.678 76.108; 159.678 76.108; 130.678 76.108; 130.678 76.108; 106.053 76.108; 106.053 76.108; 130.678 76.108; 130.678 76.108; 130.678 76.108; 130.678 63.108; 130.678 63.108" keyTimes="0; 0.178571; 0.255102; 0.331632; 0.408163; 0.484694; 0.561225; 0.637755; 0.714286; 0.752551; 0.790816; 0.867347; 1" keySplines="0 0 1 1; 0.333 0 0.667 1; 0 0 1 1; 0.333 0 0.667 1; 0 0 1 1; 0.333 0 0.667 1; 0 0 1 1; 0.333 0 0.667 1; 0.333 0 0.667 1; 0.333 0 0.667 1; 0.333 0 0.667 1; 0 0 1 1" fill="freeze" /><g transform="scale(1,1)"><animateTransform repeatCount="indefinite" type="scale" attributeName="transform" dur="6.54s" begin="0s" calcMode="spline" values="1 1; 1 1; 0.2 0.2; 1 1; 1 1" keyTimes="0; 0.714286; 0.752551; 0.790816; 1" keySplines="0 0 1 1; 0.333 0 0.667 1; 0.333 0 0.667 1; 0 0 1 1" fill="freeze" /><g transform="translate(-6.267,-13.895)"><g id="i5" transform="matrix(1,0,0,1,6.267,13.895)"><path fill="#2b2b2b" d="M6.017,0C6.017,7.536,3.323,13.645,0,13.645C-3.323,13.645,-6.017,7.536,-6.017,0C-6.017,-7.536,-3.323,-13.645,0,-13.645C3.323,-13.645,6.017,-7.536,6.017,0Z" /></g><g id="i3" transform="matrix(1,0,0,1,8.385,8.604)"><path fill="#ecf0f1" d="M-1.67,0C-1.67,0.923,-0.922,1.671,0.001,1.671C0.924,1.671,1.67,0.923,1.67,0C1.67,-0.923,0.924,-1.671,0.001,-1.671C-0.922,-1.671,-1.67,-0.923,-1.67,0Z" /></g></g></g></g></g></g><g transform="matrix(1,0,0,1,300.619,487.405)" id="i2"><g id="i8"><g transform="translate(68.84,76.108)"><animateTransform repeatCount="indefinite" type="translate" attributeName="transform" dur="6.54s" begin="0s" calcMode="spline" values="68.84 76.108; 68.84 76.108; 93.34 78.108; 93.34 78.108; 68.84 76.108; 68.84 76.108; 34.215 76.108; 34.215 76.108; 68.84 76.108; 68.84 76.108; 68.84 64.108; 68.84 64.108" keyTimes="0; 0.178571; 0.255102; 0.331632; 0.408163; 0.484694; 0.561225; 0.637755; 0.714286; 0.790816; 0.867347; 1" keySplines="0 0 1 1; 0.333 0 0.667 1; 0 0 1 1; 0.333 0 0.667 1; 0 0 1 1; 0.333 0 0.667 1; 0 0 1 1; 0.333 0 0.667 1; 0.333 0 0.667 1; 0.333 0 0.667 1; 0 0 1 1" fill="freeze" /><g transform="scale(1,1) translate(-6.267,-13.895)"><g id="i5" transform="matrix(1,0,0,1,6.267,13.895)"><path fill="#2b2b2b" d="M-6.017,0C-6.017,7.536,-3.323,13.645,0,13.645C3.323,13.645,6.017,7.536,6.017,0C6.017,-7.536,3.323,-13.645,0,-13.645C-3.323,-13.645,-6.017,-7.536,-6.017,0Z" /></g><g id="i3" transform="matrix(1,0,0,1,8.385,8.604)"><path fill="#ecf0f1" d="M-1.67,0C-1.67,0.923,-0.922,1.671,0.001,1.671C0.923,1.671,1.67,0.923,1.67,0C1.67,-0.923,0.923,-1.671,0.001,-1.671C-0.922,-1.671,-1.67,-0.923,-1.67,0Z" /></g></g></g></g></g><g transform="matrix(1,0,0,1,300.619,487.405)" id="i2"><g id="i9"><g transform="translate(154.888,101.517)"><animateTransform repeatCount="indefinite" type="translate" attributeName="transform" dur="6.54s" begin="0s" calcMode="spline" values="154.888 101.517; 154.888 101.517; 179.638 100.517; 179.638 100.517; 154.888 101.517; 154.888 101.517; 109.138 106.767; 109.138 106.767; 154.888 101.517; 154.888 101.517; 154.888 89.517; 154.888 89.517" keyTimes="0; 0.178571; 0.255102; 0.331632; 0.408163; 0.484694; 0.561225; 0.637755; 0.714286; 0.790816; 0.867347; 1" keySplines="0 0 1 1; 0.333 0 0.667 1; 0.333 0 0.667 1; 0.333 0 0.667 1; 0 0 1 1; 0.333 0 0.667 1; 0 0 1 1; 0.333 0 0.667 1; 0.333 0 0.667 1; 0.333 0 0.667 1; 0 0 1 1" fill="freeze" /><g transform="scale(1,1) translate(-13.801,-7.931)"><g id="i3" transform="matrix(1,0,0,1,13.801,7.931)"><path fill="#f6cac9" d="M13.552,0C13.552,4.242,7.485,7.681,0,7.681C-7.484,7.681,-13.552,4.242,-13.552,0C-13.552,-4.242,-7.484,-7.681,0,-7.681C7.485,-7.681,13.552,-4.242,13.552,0Z" /></g></g></g></g></g><g transform="matrix(1,0,0,1,300.619,487.405)" id="i2"><g id="i10"><g transform="translate(44.618,101.517)"><animateTransform repeatCount="indefinite" type="translate" attributeName="transform" dur="6.54s" begin="0s" calcMode="spline" values="44.618 101.517; 44.618 101.517; 77.118 109.767; 77.118 109.767; 44.618 101.517; 44.618 101.517; 22.743 101.517; 22.743 101.517; 44.618 101.517; 44.618 101.517; 44.618 90.517; 44.618 90.517" keyTimes="0; 0.178571; 0.255102; 0.331632; 0.408163; 0.484694; 0.561225; 0.637755; 0.714286; 0.790816; 0.867347; 1" keySplines="0 0 1 1; 0.333 0 0.667 1; 0 0 1 1; 0.333 0 0.667 1; 0 0 1 1; 0.333 0 0.667 1; 0 0 1 1; 0.333 0 0.667 1; 0.333 0 0.667 1; 0.333 0 0.667 1; 0 0 1 1" fill="freeze" /><g transform="scale(1,1) translate(-13.801,-7.931)"><g id="i3" transform="matrix(1,0,0,1,13.801,7.931)"><path fill="#f6cac9" d="M-13.551,0C-13.551,4.242,-7.485,7.681,0,7.681C7.484,7.681,13.551,4.242,13.551,0C13.551,-4.242,7.484,-7.681,0,-7.681C-7.485,-7.681,-13.551,-4.242,-13.551,0Z" /></g></g></g></g></g><g transform="matrix(1,0,0,1,300.619,487.405)" id="i2"><g id="i11"><g transform="translate(98.253,122.741)"><animateTransform repeatCount="indefinite" type="translate" attributeName="transform" dur="6.54s" begin="0s" calcMode="spline" values="98.253 122.741; 98.253 122.741; 129.753 122.741; 129.753 122.741; 98.253 122.741; 98.253 122.741; 58.753 122.741; 58.753 122.741; 98.253 122.741; 98.253 122.741; 98.253 112.741; 98.253 112.741" keyTimes="0; 0.178571; 0.255102; 0.331632; 0.408163; 0.484694; 0.561225; 0.637755; 0.714286; 0.790816; 0.867347; 1" keySplines="0 0 1 1; 0.333 0 0.667 1; 0 0 1 1; 0.333 0 0.667 1; 0 0 1 1; 0.333 0 0.667 1; 0 0 1 1; 0.333 0 0.667 1; 0.333 0 0.667 1; 0.333 0 0.667 1; 0 0 1 1" fill="freeze" /><g transform="scale(1,1) translate(-11.912,-17.861)"><g id="i5" transform="matrix(1,0,0,1,11.912,10.35)"><path fill="#2b2b2b" d="M-1.58,8.883C-1.58,8.883,-10.96,-7.363,-10.96,-7.363C-11.662,-8.58,-10.784,-10.1,-9.38,-10.1C-9.38,-10.1,9.38,-10.1,9.38,-10.1C10.784,-10.1,11.662,-8.58,10.96,-7.363C10.96,-7.363,1.58,8.883,1.58,8.883C0.878,10.099,-0.878,10.099,-1.58,8.883Z" /></g><g id="i3" transform="matrix(1,0,0,1,11.912,20.784)"><path fill="#2b2b2b" d="M0,14.687C-0.769,14.687,-1.393,14.063,-1.393,13.294C-1.393,13.294,-1.393,-13.294,-1.393,-13.294C-1.393,-14.063,-0.769,-14.687,0,-14.687C0.768,-14.687,1.393,-14.063,1.393,-13.294C1.393,-13.294,1.393,13.294,1.393,13.294C1.393,14.063,0.768,14.687,0,14.687Z" /></g></g></g></g></g></g><clipPath id="i12"><path d="M530.5,118C530.5,118,277,121,277,121C277,121,249,114.5,250.5,116C254.972,120.473,545,117.5,545,117.5C545,117.5,530.5,118,530.5,118Z"><animate repeatCount="indefinite" begin="0s" keySplines="0.333 0 0.667 1; 0.333 0 0.667 1; 0.333 0 0.667 1; 0.333 0 0.667 1; 0.333 0 0.667 1; 0.333 0 0.667 1; 0.333 0 0.667 1; 0.333 0 0.667 1; 0.333 0 0.667 1; 0.333 0 0.667 1; 0.333 0 0.667 1; 0.333 0 0.833 0.833; 0.167 0.167 0.667 1; 0.333 0 0.667 1; 0.333 0 0.833 0.833; 0.167 0.167 0.667 1; 0.333 0 0.667 1; 0.333 0 0.667 1; 0.333 0 0.667 1; 0.333 0 0.667 1; 0.333 0 0.667 1; 0.333 0 0.667 1; 0.333 0 0.667 1; 0.333 0 0.667 1; 0.333 0 0.667 1; 0.333 0 0.667 1; 0.333 0 0.667 1; 0.333 0 0.667 1; 0.333 0 0.667 1; 0.333 0 0.667 1; 0.333 0 0.667 1; 0.333 0 0.833 0.833; 0 0 1 1; 0.167 0.167 0.667 1; 0.333 0 0.833 0.833; 0 0 1 1; 0.167 0.167 0.667 1; 0.333 0 0.833 0.833; 0 0 1 1; 0.167 0.167 0.667 1; 0.333 0 0.833 0.833; 0 0 1 1; 0.167 0.167 0.667 1; 0.333 0 0.833 0.833; 0 0 1 1; 0 0 1 1; 0.167 0.167 0.667 1; 0.333 0 0.667 1; 0 0 1 1" calcMode="spline" fill="freeze" dur="6.54s" keyTimes="0; 0.005102; 0.010204; 0.015306; 0.020408; 0.02551; 0.030612; 0.035714; 0.040816; 0.045918; 0.05102; 0.056122; 0.061224; 0.066327; 0.071429; 0.076531; 0.081633; 0.086735; 0.091837; 0.096939; 0.102041; 0.107143; 0.112245; 0.117347; 0.122449; 0.127551; 0.132653; 0.137755; 0.142857; 0.147959; 0.153061; 0.841837; 0.852041; 0.862245; 0.872449; 0.892857; 0.903061; 0.908163; 0.923469; 0.933673; 0.938775; 0.94898; 0.954082; 0.959184; 0.964286; 0.969388; 0.97449; 0.979592; 0.994898; 1" values="M530.5,118C530.5,118,277,121,277,121C277,121,249,114.5,250.5,116C254.972,120.473,545,117.5,545,117.5C545,117.5,530.5,118,530.5,118Z; M530.062,118.875C530.062,118.875,276,123.75,276,123.75C276,123.75,248.5,115.812,250.062,117.875C254.225,122.538,545.875,117.375,545.875,117.375C545.875,117.375,530.062,118.875,530.062,118.875Z; M528.268,125.465C528.268,125.465,264.929,125.072,264.929,125.072C264.929,125.072,248,117.125,249.625,119.75C253.479,124.604,546.75,117.25,546.75,117.25C546.75,117.25,528.268,125.465,528.268,125.465Z; M527.973,122.72C527.973,122.72,269.19,122.06,269.19,122.06C269.19,122.06,247.499,118.437,249.187,121.625C252.732,126.67,547.625,117.125,547.625,117.125C547.625,117.125,527.973,122.72,527.973,122.72Z; M532.579,123.776C532.579,123.776,279.652,125.748,279.652,125.748C279.652,125.748,247,119.75,248.75,123.5C251.986,128.736,548.5,117,548.5,117C548.5,117,532.579,123.776,532.579,123.776Z; M527.184,126.832C527.184,126.832,281.114,127.311,281.114,127.311C281.114,127.311,246.5,121.062,248.312,125.375C251.239,130.802,549.375,116.875,549.375,116.875C549.375,116.875,527.184,126.832,527.184,126.832Z; M532.706,130.222C532.706,130.222,279.826,129.374,279.826,129.374C279.826,129.374,246,122.375,247.875,127.25C250.493,132.868,550.25,116.75,550.25,116.75C550.25,116.75,532.706,130.222,532.706,130.222Z; M534.478,134.361C534.478,134.361,278.788,132.187,278.788,132.187C278.788,132.187,245.499,123.687,247.437,129.125C249.746,134.934,551.125,116.625,551.125,116.625C551.125,116.625,534.478,134.361,534.478,134.361Z; M519.5,138.5C519.5,138.5,264.5,139,264.5,139C264.5,139,245,125,247,131C249,137,552,116.5,552,116.5C552,116.5,519.5,138.5,519.5,138.5Z; M529.208,146.917C529.208,146.917,273.292,147.209,273.292,147.209C273.292,147.209,244.75,89.834,246.75,95.834C248.75,101.834,549.25,92.334,549.25,92.334C549.25,92.334,529.208,146.917,529.208,146.917Z; M523.417,152.833C523.417,152.833,266.583,152.917,266.583,152.917C266.583,152.917,246.955,92.849,248.955,98.849C250.955,104.849,549.182,83.349,549.182,83.349C549.182,83.349,523.417,152.833,523.417,152.833Z; M525.625,160.75C525.625,160.75,267.875,160.625,267.875,160.625C267.875,160.625,249.859,46.864,251.859,52.864C253.859,58.864,548.564,48.464,548.564,48.464C548.564,48.464,525.625,160.75,525.625,160.75Z; M528.583,171.667C528.583,171.667,269.917,171.333,269.917,171.333C269.917,171.333,250.819,72.99,252.819,78.99C254.819,84.99,549.445,67.968,549.445,67.968C549.445,67.968,528.583,171.667,528.583,171.667Z; M536.542,184.084C536.542,184.084,276.958,183.542,276.958,183.542C276.958,183.542,251.779,99.116,253.779,105.116C255.779,111.116,550.327,87.472,550.327,87.472C550.327,87.472,536.542,184.084,536.542,184.084Z; M530.25,197C530.25,197,269.75,196.25,269.75,196.25C269.75,196.25,243.525,54.671,245.525,60.671C247.525,66.671,548.28,39.476,548.28,39.476C548.28,39.476,530.25,197,530.25,197Z; M519.708,214.167C519.708,214.167,258.292,213.209,258.292,213.209C258.292,213.209,241.271,63.059,243.271,69.059C245.271,75.059,551.4,49.48,551.4,49.48C551.4,49.48,519.708,214.167,519.708,214.167Z; M530.167,232.334C530.167,232.334,267.833,231.167,267.833,231.167C267.833,231.167,239.017,71.448,241.017,77.448C243.017,83.448,554.52,59.484,554.52,59.484C554.52,59.484,530.167,232.334,530.167,232.334Z; M536.875,253.25C536.875,253.25,273.625,251.875,273.625,251.875C273.625,251.875,235.263,28.836,237.263,34.836C239.263,40.836,573.64,33.738,573.64,33.738C573.64,33.738,536.875,253.25,536.875,253.25Z; M528.083,277.167C528.083,277.167,263.917,275.583,263.917,275.583C263.917,275.583,220.508,16.224,222.508,22.224C224.508,28.224,584.427,21.659,584.427,21.659C584.427,21.659,528.083,277.167,528.083,277.167Z; M525.292,307.583C525.292,307.583,260.208,305.792,260.208,305.792C260.208,305.792,188.254,72.612,190.254,78.612C192.254,84.612,579.713,16.08,579.713,16.08C579.713,16.08,525.292,307.583,525.292,307.583Z; M532.5,343.5C532.5,343.5,266.5,341.5,266.5,341.5C266.5,341.5,207,67,209,73C211,79,592,-17.5,592,-17.5C592,-17.5,532.5,343.5,532.5,343.5Z; M512.8,384.5C512.8,384.5,267.5,383.25,267.5,383.25C267.5,383.25,207.458,23.639,210.812,28.75C211.75,31.711,563.5,-26,563.5,-26C563.5,-26,512.8,384.5,512.8,384.5Z; M512.1,430C512.1,430,276.5,430.5,276.5,430.5C276.5,430.5,258.916,109.278,263.625,113.5C263.5,113.423,529,42,529,42C529,42,512.1,430,512.1,430Z; M530.4,485.5C530.4,485.5,265,480.5,265,480.5C265,480.5,238,120.2,242.437,121.063C243.375,124.024,535.5,-36.75,535.5,-36.75C535.5,-36.75,530.4,485.5,530.4,485.5Z; M559.2,-20C559.2,-20,192,-42,192,-42C192,-42,276.5,529,278.5,535C280.5,541,531.5,536.5,531.5,536.5C531.5,536.5,559.2,-20,559.2,-20Z; M555.333,-6.333C555.333,-6.333,205.333,-24.333,205.333,-24.333C205.333,-24.333,274.417,571.583,276.417,577.583C278.417,583.583,537.083,578.917,537.083,578.917C537.083,578.917,555.333,-6.333,555.333,-6.333Z; M551.467,7.333C551.467,7.333,218.667,-6.667,218.667,-6.667C218.667,-6.667,265.083,603.317,267.083,609.317C269.083,615.317,539.817,611.483,539.817,611.483C539.817,611.483,551.467,7.333,551.467,7.333Z; M547.6,21C547.6,21,232,11,232,11C232,11,264.25,625.925,266.25,631.925C268.25,637.925,548.8,632.05,548.8,632.05C548.8,632.05,547.6,21,547.6,21Z; M543.733,34.667C543.733,34.667,245.333,28.667,245.333,28.667C245.333,28.667,257.083,639.117,259.083,645.117C261.083,651.117,551.283,644.2,551.283,644.2C551.283,644.2,543.733,34.667,543.733,34.667Z; M539.867,48.333C539.867,48.333,258.667,46.333,258.667,46.333C258.667,46.333,253.167,646.558,255.167,652.558C257.167,658.558,556.267,653.1,556.267,653.1C556.267,653.1,539.867,48.333,539.867,48.333Z; M536,62C536,62,272,64,272,64C272,64,252.171,661.157,255,655.5C255,655.5,551,655,551,655C551,655,536,62,536,62Z; M536,62C536,62,272,64,272,64C272,64,252.171,661.157,255,655.5C255,655.5,551,655,551,655C551,655,536,62,536,62Z; M536,62C536,62,272,64,272,64C272,64,251.69,660.527,254.519,654.87C254.519,654.87,551.148,654.13,551.148,654.13C551.148,654.13,536,62,536,62Z; M536,62C536,62,272,64,272,64C272,64,248.226,658.13,251.055,652.473C251.055,652.473,560.009,650.885,560.009,650.885C560.009,650.885,536,62,536,62Z; M536,62C536,62,272,64,272,64C272,64,253.671,652.657,256.5,647C256.5,647,554,647.5,554,647.5C554,647.5,536,62,536,62Z; M536,62C536,62,272,64,272,64C272,64,259.06,635.453,261.889,629.796C261.889,629.796,554.204,629.725,554.204,629.725C554.204,629.725,536,62,536,62Z; M536,62C536,62,272,64,272,64C272,64,265.432,619.131,268.261,613.474C268.261,613.474,552.97,615.444,552.97,615.444C552.97,615.444,536,62,536,62Z; M536,62C536,62,272,64,272,64C272,64,267.504,611.095,270.333,605.438C270.333,605.438,552.688,606.646,552.688,606.646C552.688,606.646,536,62,536,62Z; M536,62C536,62,272,64,272,64C272,64,267.578,577.503,270.407,571.846C270.407,571.846,556.125,570.355,556.125,570.355C556.125,570.355,536,62,536,62Z; M536,62C536,62,272,64,272,64C272,64,267.638,540.949,270.467,535.292C270.467,535.292,556.422,536.234,556.422,536.234C556.422,536.234,536,62,536,62Z; M536,62C536,62,272,64,272,64C272,64,267.651,520.911,270.48,515.254C270.48,515.254,559.563,513.065,559.563,513.065C559.563,513.065,536,62,536,62Z; M536,62C536,62,272,64,272,64C272,64,276.019,459.706,278.848,454.049C278.848,454.049,558.188,454.644,558.188,454.644C558.188,454.644,536,62,536,62Z; M536,62C536,62,272,64,272,64C272,64,275.471,417.292,278.3,411.635C278.3,411.635,555.949,412.956,555.949,412.956C555.949,412.956,536,62,536,62Z; M536,62C536,62,272,64,272,64C272,64,267.886,364,270.715,358.343C270.715,358.343,546.812,356.723,546.812,356.723C546.812,356.723,536,62,536,62Z; M536,62C536,62,272,64,272,64C272,64,271.09,295.586,273.919,289.929C273.919,289.929,545.003,289.819,545.003,289.819C545.003,289.819,536,62,536,62Z; M536,62C536,62,272,64,272,64C272,64,273.772,226.822,276.601,221.165C276.601,221.165,547.946,219.434,547.946,219.434C547.946,219.434,536,62,536,62Z; M536,62C536,62,272,64,272,64C272,64,272.854,176.823,275.683,171.166C275.683,171.166,551.118,171.549,551.118,171.549C551.118,171.549,536,62,536,62Z; M536,62C536,62,272,64,272,64C272,64,275.692,153.447,278.521,147.79C278.521,147.79,550.134,144.239,550.134,144.239C550.134,144.239,536,62,536,62Z; M536,62C536,62,272,64,272,64C272,64,262.171,146.157,265,140.5C265,140.5,561,140,561,140C561,140,536,62,536,62Z; M536,62C536,62,272,64,272,64C272,64,262.171,146.157,265,140.5C265,140.5,561,140,561,140C561,140,536,62,536,62Z" attributeName="d" /></path></clipPath></defs><g transform="matrix(1,0,0,1,192.576,639.771)" id="i13"><g id="i3" transform="matrix(1,0,0,1,207.424,5.627)"><path fill="#615e5f" d="M207.174,5.377C207.174,-0.562,114.419,-5.377,0,-5.377C-114.419,-5.377,-207.174,-0.562,-207.174,5.377" /></g></g><g id="i14"><g transform="translate(400,937)"><animateTransform repeatCount="indefinite" type="translate" attributeName="transform" dur="6.54s" begin="0s" calcMode="spline" values="400 937; 400 400; 400 400; 400 937; 400 937" keyTimes="0; 0.153061; 0.841837; 0.994898; 1" keySplines="0.877 0 0.667 1; 0 0 1 1; 1 0 0.667 1; 0 0 1 1" fill="freeze" /><g transform="scale(1,1) translate(-400,-400)"><g clip-path="url(#i12)" id="i15"><g clip-path="url(#i0)"><g transform="matrix(1,0,0,1,300.619,487.405)"><g transform="matrix(1,0,0,1,99.381,83.187)"><path fill="#ecf0f1" d="M82.393,82.052C92.963,65.899,99.132,46.625,99.132,26.219C99.132,-28.53,54.75,-82.937,0.001,-82.937C-54.748,-82.937,-99.132,-28.53,-99.132,26.219C-99.132,46.625,-92.962,65.899,-82.392,82.052C-57.139,82.621,-29.282,82.937,0.001,82.937C29.283,82.937,57.14,82.621,82.393,82.052Z" /></g></g><g transform="matrix(1,0,0,1,300.619,487.405)"><g><g transform="translate(148.119,18.929)"><animateTransform repeatCount="indefinite" type="translate" attributeName="transform" dur="6.54s" begin="0s" calcMode="spline" values="148.119 18.929; 148.119 18.929; 165.619 28.929; 165.619 28.929; 148.119 18.929; 148.119 18.929; 136.119 38.929; 136.119 38.929; 148.119 18.929; 148.119 18.929; 148.119 54.929; 148.119 54.929" keyTimes="0; 0.178571; 0.255102; 0.331632; 0.408163; 0.484694; 0.561225; 0.637755; 0.714286; 0.790816; 0.867347; 1" keySplines="0 0 1 1; 0.333 0 0.667 1; 0 0 1 1; 0.333 0 0.667 1; 0 0 1 1; 0.333 0 0.667 1; 0 0 1 1; 0.333 0 0.667 1; 0 0 1 1; 0.333 0 0.667 1; 0 0 1 1" fill="freeze" /><g transform="scale(1,1) translate(-60.126,-397.902)"><g transform="matrix(1,0,0,1,83.231,207.033)"><path fill="#ecf0f1" d="M-42.883,187.684C-42.883,187.684,-82.981,-198.158,-11.696,-184.317C-11.696,-184.317,82.981,-206.782,-19.492,206.783C-19.492,206.783,-42.883,187.684,-42.883,187.684Z" /></g><g transform="matrix(1,0,0,1,76.104,213.174)"><path fill="#f6cac9" d="M-23.799,147.734C-25.233,146.255,-26.105,144.325,-26.265,142.271C-28.718,110.632,-47.431,-146.306,-7.309,-136.462C-7.309,-136.462,47.432,-152.876,-8.765,143.233C-10.1,150.268,-18.816,152.876,-23.799,147.734Z" /></g></g></g></g></g><g transform="matrix(1,0,0,1,300.619,487.405)"><g><g transform="translate(56.472,10.338)"><animateTransform repeatCount="indefinite" type="translate" attributeName="transform" dur="6.54s" begin="0s" calcMode="spline" values="56.472 10.338; 56.472 10.338; 62.472 34.338; 62.472 34.338; 56.472 10.338; 56.472 10.338; 47.472 20.338; 47.472 20.338; 56.472 10.338; 56.472 10.338; 56.472 44.338; 56.472 44.338" keyTimes="0; 0.178571; 0.255102; 0.331632; 0.408163; 0.484694; 0.561225; 0.637755; 0.714286; 0.790816; 0.867347; 1" keySplines="0 0 1 1; 0.333 0 0.667 1; 0 0 1 1; 0.333 0 0.667 1; 0 0 1 1; 0.333 0 0.667 1; 0 0 1 1; 0.333 0 0.667 1; 0 0 1 1; 0.333 0 0.667 1; 0 0 1 1" fill="freeze" /><g transform="rotate(0)"><animateTransform repeatCount="indefinite" type="rotate" attributeName="transform" dur="6.54s" begin="0s" calcMode="spline" values="0; 0; -7; 0; -7; 0; 0" keyTimes="0; 0.714286; 0.734694; 0.752551; 0.772959; 0.790816; 1" keySplines="0 0 1 1; 0.333 0 0.667 1; 0.333 0 0.667 1; 0.333 0 0.667 1; 0.333 0 0.667 1; 0 0 1 1" fill="freeze" /><g transform="scale(1,1) translate(-112.164,-389.311)"><g transform="matrix(1,0,0,1,83.231,207.033)"><path fill="#ecf0f1" d="M42.883,187.684C42.883,187.684,82.981,-198.158,11.696,-184.317C11.696,-184.317,-82.981,-206.782,19.492,206.783C19.492,206.783,42.883,187.684,42.883,187.684Z" /></g><g transform="matrix(1,0,0,1,90.358,213.174)"><path fill="#f6cac9" d="M23.8,147.734C25.234,146.255,26.105,144.325,26.265,142.271C28.718,110.632,47.431,-146.306,7.309,-136.462C7.309,-136.462,-47.432,-152.876,8.765,143.233C10.1,150.268,18.817,152.876,23.8,147.734Z" /></g></g></g></g></g></g><g transform="matrix(1,0,0,1,300.619,487.405)"><g><g transform="translate(130.678,76.108)"><animateTransform repeatCount="indefinite" type="translate" attributeName="transform" dur="6.54s" begin="0s" calcMode="spline" values="130.678 76.108; 130.678 76.108; 159.678 76.108; 159.678 76.108; 130.678 76.108; 130.678 76.108; 106.053 76.108; 106.053 76.108; 130.678 76.108; 130.678 76.108; 130.678 76.108; 130.678 63.108; 130.678 63.108" keyTimes="0; 0.178571; 0.255102; 0.331632; 0.408163; 0.484694; 0.561225; 0.637755; 0.714286; 0.752551; 0.790816; 0.867347; 1" keySplines="0 0 1 1; 0.333 0 0.667 1; 0 0 1 1; 0.333 0 0.667 1; 0 0 1 1; 0.333 0 0.667 1; 0 0 1 1; 0.333 0 0.667 1; 0.333 0 0.667 1; 0.333 0 0.667 1; 0.333 0 0.667 1; 0 0 1 1" fill="freeze" /><g transform="scale(1,1)"><animateTransform repeatCount="indefinite" type="scale" attributeName="transform" dur="6.54s" begin="0s" calcMode="spline" values="1 1; 1 1; 0.2 0.2; 1 1; 1 1" keyTimes="0; 0.714286; 0.752551; 0.790816; 1" keySplines="0 0 1 1; 0.333 0 0.667 1; 0.333 0 0.667 1; 0 0 1 1" fill="freeze" /><g transform="translate(-6.267,-13.895)"><g transform="matrix(1,0,0,1,6.267,13.895)"><path fill="#2b2b2b" d="M6.017,0C6.017,7.536,3.323,13.645,0,13.645C-3.323,13.645,-6.017,7.536,-6.017,0C-6.017,-7.536,-3.323,-13.645,0,-13.645C3.323,-13.645,6.017,-7.536,6.017,0Z" /></g><g transform="matrix(1,0,0,1,8.385,8.604)"><path fill="#ecf0f1" d="M-1.67,0C-1.67,0.923,-0.922,1.671,0.001,1.671C0.924,1.671,1.67,0.923,1.67,0C1.67,-0.923,0.924,-1.671,0.001,-1.671C-0.922,-1.671,-1.67,-0.923,-1.67,0Z" /></g></g></g></g></g></g><g transform="matrix(1,0,0,1,300.619,487.405)"><g><g transform="translate(68.84,76.108)"><animateTransform repeatCount="indefinite" type="translate" attributeName="transform" dur="6.54s" begin="0s" calcMode="spline" values="68.84 76.108; 68.84 76.108; 93.34 78.108; 93.34 78.108; 68.84 76.108; 68.84 76.108; 34.215 76.108; 34.215 76.108; 68.84 76.108; 68.84 76.108; 68.84 64.108; 68.84 64.108" keyTimes="0; 0.178571; 0.255102; 0.331632; 0.408163; 0.484694; 0.561225; 0.637755; 0.714286; 0.790816; 0.867347; 1" keySplines="0 0 1 1; 0.333 0 0.667 1; 0 0 1 1; 0.333 0 0.667 1; 0 0 1 1; 0.333 0 0.667 1; 0 0 1 1; 0.333 0 0.667 1; 0.333 0 0.667 1; 0.333 0 0.667 1; 0 0 1 1" fill="freeze" /><g transform="scale(1,1) translate(-6.267,-13.895)"><g transform="matrix(1,0,0,1,6.267,13.895)"><path fill="#2b2b2b" d="M-6.017,0C-6.017,7.536,-3.323,13.645,0,13.645C3.323,13.645,6.017,7.536,6.017,0C6.017,-7.536,3.323,-13.645,0,-13.645C-3.323,-13.645,-6.017,-7.536,-6.017,0Z" /></g><g transform="matrix(1,0,0,1,8.385,8.604)"><path fill="#ecf0f1" d="M-1.67,0C-1.67,0.923,-0.922,1.671,0.001,1.671C0.923,1.671,1.67,0.923,1.67,0C1.67,-0.923,0.923,-1.671,0.001,-1.671C-0.922,-1.671,-1.67,-0.923,-1.67,0Z" /></g></g></g></g></g><g transform="matrix(1,0,0,1,300.619,487.405)"><g><g transform="translate(154.888,101.517)"><animateTransform repeatCount="indefinite" type="translate" attributeName="transform" dur="6.54s" begin="0s" calcMode="spline" values="154.888 101.517; 154.888 101.517; 179.638 100.517; 179.638 100.517; 154.888 101.517; 154.888 101.517; 109.138 106.767; 109.138 106.767; 154.888 101.517; 154.888 101.517; 154.888 89.517; 154.888 89.517" keyTimes="0; 0.178571; 0.255102; 0.331632; 0.408163; 0.484694; 0.561225; 0.637755; 0.714286; 0.790816; 0.867347; 1" keySplines="0 0 1 1; 0.333 0 0.667 1; 0.333 0 0.667 1; 0.333 0 0.667 1; 0 0 1 1; 0.333 0 0.667 1; 0 0 1 1; 0.333 0 0.667 1; 0.333 0 0.667 1; 0.333 0 0.667 1; 0 0 1 1" fill="freeze" /><g transform="scale(1,1) translate(-13.801,-7.931)"><g transform="matrix(1,0,0,1,13.801,7.931)"><path fill="#f6cac9" d="M13.552,0C13.552,4.242,7.485,7.681,0,7.681C-7.484,7.681,-13.552,4.242,-13.552,0C-13.552,-4.242,-7.484,-7.681,0,-7.681C7.485,-7.681,13.552,-4.242,13.552,0Z" /></g></g></g></g></g><g transform="matrix(1,0,0,1,300.619,487.405)"><g><g transform="translate(44.618,101.517)"><animateTransform repeatCount="indefinite" type="translate" attributeName="transform" dur="6.54s" begin="0s" calcMode="spline" values="44.618 101.517; 44.618 101.517; 77.118 109.767; 77.118 109.767; 44.618 101.517; 44.618 101.517; 22.743 101.517; 22.743 101.517; 44.618 101.517; 44.618 101.517; 44.618 90.517; 44.618 90.517" keyTimes="0; 0.178571; 0.255102; 0.331632; 0.408163; 0.484694; 0.561225; 0.637755; 0.714286; 0.790816; 0.867347; 1" keySplines="0 0 1 1; 0.333 0 0.667 1; 0 0 1 1; 0.333 0 0.667 1; 0 0 1 1; 0.333 0 0.667 1; 0 0 1 1; 0.333 0 0.667 1; 0.333 0 0.667 1; 0.333 0 0.667 1; 0 0 1 1" fill="freeze" /><g transform="scale(1,1) translate(-13.801,-7.931)"><g transform="matrix(1,0,0,1,13.801,7.931)"><path fill="#f6cac9" d="M-13.551,0C-13.551,4.242,-7.485,7.681,0,7.681C7.484,7.681,13.551,4.242,13.551,0C13.551,-4.242,7.484,-7.681,0,-7.681C-7.485,-7.681,-13.551,-4.242,-13.551,0Z" /></g></g></g></g></g><g transform="matrix(1,0,0,1,300.619,487.405)"><g><g transform="translate(98.253,122.741)"><animateTransform repeatCount="indefinite" type="translate" attributeName="transform" dur="6.54s" begin="0s" calcMode="spline" values="98.253 122.741; 98.253 122.741; 129.753 122.741; 129.753 122.741; 98.253 122.741; 98.253 122.741; 58.753 122.741; 58.753 122.741; 98.253 122.741; 98.253 122.741; 98.253 112.741; 98.253 112.741" keyTimes="0; 0.178571; 0.255102; 0.331632; 0.408163; 0.484694; 0.561225; 0.637755; 0.714286; 0.790816; 0.867347; 1" keySplines="0 0 1 1; 0.333 0 0.667 1; 0 0 1 1; 0.333 0 0.667 1; 0 0 1 1; 0.333 0 0.667 1; 0 0 1 1; 0.333 0 0.667 1; 0.333 0 0.667 1; 0.333 0 0.667 1; 0 0 1 1" fill="freeze" /><g transform="scale(1,1) translate(-11.912,-17.861)"><g transform="matrix(1,0,0,1,11.912,10.35)"><path fill="#2b2b2b" d="M-1.58,8.883C-1.58,8.883,-10.96,-7.363,-10.96,-7.363C-11.662,-8.58,-10.784,-10.1,-9.38,-10.1C-9.38,-10.1,9.38,-10.1,9.38,-10.1C10.784,-10.1,11.662,-8.58,10.96,-7.363C10.96,-7.363,1.58,8.883,1.58,8.883C0.878,10.099,-0.878,10.099,-1.58,8.883Z" /></g><g transform="matrix(1,0,0,1,11.912,20.784)"><path fill="#2b2b2b" d="M0,14.687C-0.769,14.687,-1.393,14.063,-1.393,13.294C-1.393,13.294,-1.393,-13.294,-1.393,-13.294C-1.393,-14.063,-0.769,-14.687,0,-14.687C0.768,-14.687,1.393,-14.063,1.393,-13.294C1.393,-13.294,1.393,13.294,1.393,13.294C1.393,14.063,0.768,14.687,0,14.687Z" /></g></g></g></g></g></g></g></g></g></g><g transform="matrix(1,0,0,1,192.576,650.525)" id="i16"><g id="i3" transform="matrix(1,0,0,1,207.424,5.627)"><path fill="#615e5f" d="M-206.924,-6.377C-206.924,-0.438,-114.419,5.377,0,5.377C114.419,5.377,208.174,-0.188,208.174,-6.127" /></g></g></svg>